Coordinates
version=1
nRows=17
nColumns=24
inDegrees=yes

Units are S.I. units (second, meters, Newtons, ...)
Angles are in degrees.

endheader
time	pelvis_tilt	pelvis_list	pelvis_rotation	pelvis_tx	pelvis_ty	pelvis_tz	hip_flexion_r	hip_adduction_r	hip_rotation_r	knee_angle_r	ankle_angle_r	subtalar_angle_r	mtp_angle_r	hip_flexion_l	hip_adduction_l	hip_rotation_l	knee_angle_l	ankle_angle_l	subtalar_angle_l	mtp_angle_l	lumbar_extension	lumbar_bending	lumbar_rotation
      7.04000000	     -1.16231642	      1.66432509	     -3.19021387	      1.43477032	      0.86964870	     -0.22386292	    -13.21177134	      3.30076387	      1.02303026	    -13.12236345	     18.28039412	      9.27942476	      0.00000000	     19.30811646	      7.52572154	     -2.54029215	     -1.03447573	      2.79694359	     -3.97440655	      0.00000000	     -9.85787308	      0.68502390	    181.43855148
      7.05000000	     -1.03175042	      1.92465949	     -3.05983172	      1.44608415	      0.86930888	     -0.22390047	    -13.16846375	      2.85992956	      0.06106813	    -14.88468836	     17.92127614	     10.66870440	      0.00000000	     19.47291766	      7.92096467	     -1.34714045	     -2.77657563	      1.85999662	     -5.63431400	      0.00000000	    -10.04650013	      0.21760249	    180.98064292
      7.06000000	     -0.90276253	      2.17481353	     -2.81890598	      1.45745671	      0.86924525	     -0.22410692	    -13.01076621	      2.41052435	     -1.01513685	    -16.83393240	     17.15226187	     12.00207428	      0.00000000	     19.58196907	      8.35808717	      0.25075650	     -4.52634659	      0.67642060	     -7.64156889	      0.00000000	    -10.22924928	     -0.21840559	    180.44244928
      7.07000000	     -0.76687801	      2.46467758	     -2.59799782	      1.46891488	      0.86947380	     -0.22440473	    -12.68161373	      1.82112237	     -2.29112800	    -19.07672367	     16.11105362	     13.63189165	      0.00000000	     19.65059765	      8.85886981	      1.58591705	     -6.27801838	     -0.30189679	     -9.25670768	      0.00000000	    -10.40061004	     -0.67194810	    179.97636170
      7.08000000	     -0.63620163	      2.81477624	     -2.36427164	      1.48043904	      0.86993969	     -0.22476216	    -12.18359132	      1.09600222	     -3.57353699	    -21.57554576	     14.72954015	     15.29817293	      0.00000000	     19.67090836	      9.44074388	      2.65570961	     -7.97142503	     -0.97000436	    -10.42105091	      0.00000000	    -10.54153606	     -1.19172722	    179.52752650
      7.09000000	     -0.52927968	      3.10478005	     -2.09232302	      1.49190536	      0.87063304	     -0.22528940	    -11.50617868	      0.38688299	     -4.70618087	    -24.26991353	     12.81469974	     16.75478489	      0.00000000	     19.59202312	      9.99715608	      3.86407178	     -9.47622297	     -1.50523996	    -11.64982618	      0.00000000	    -10.65306265	     -1.57744773	    179.05276202
      7.10000000	     -0.44311108	      3.39379970	     -1.86065678	      1.50322799	      0.87144839	     -0.22579228	    -10.60443624	     -0.36609941	     -5.58445701	    -27.21601860	     10.54439850	     17.99282395	      0.00000000	     19.43685193	     10.54289536	      4.90675404	    -10.81276376	     -1.62601335	    -12.55172206	      0.00000000	    -10.75626876	     -1.95175851	    178.69870098
      7.11000000	     -0.37311375	      3.68238806	     -1.69925598	      1.51438090	      0.87233279	     -0.22623791	     -9.47501862	     -1.15495015	     -6.18416400	    -30.39090484	      7.98363977	     18.99650241	      0.00000000	     19.18220875	     11.06253919	      5.75736256	    -11.93269607	     -1.33826732	    -13.15545267	      0.00000000	    -10.85085838	     -2.31056312	    178.47027465
      7.12000000	     -0.43948606	      3.99097975	     -1.53773937	      1.52539167	      0.87311460	     -0.22666848	     -8.00713043	     -1.95942584	     -6.59177703	    -33.73812302	      5.14949663	     19.59328471	      0.00000000	     18.94043468	     11.58932766	      6.51004124	    -12.79994084	     -0.92536233	    -13.71974170	      0.00000000	    -10.76385233	     -2.68463427	    178.26780434
      7.13000000	     -0.56344370	      4.34092751	     -1.48980957	      1.53616707	      0.87383411	     -0.22687131	     -6.26789960	     -2.79736573	     -6.71288699	    -37.23734433	      2.23502863	     19.79413261	      0.00000000	     18.64745203	     12.09153364	      6.97038734	    -13.41605056	     -0.27336610	    -14.01493453	      0.00000000	    -10.61676010	     -3.12879701	    178.20250756
      7.14000000	     -0.74943319	      4.72226972	     -1.51738879	      1.54667604	      0.87438758	     -0.22700811	     -4.27494081	     -3.67194467	     -6.69846184	    -40.84544177	     -0.53507215	     19.72470914	      0.00000000	     18.32724686	     12.57895653	      7.19247500	    -13.80903140	      0.57752580	    -14.10536258	      0.00000000	    -10.40584809	     -3.59536626	    178.23312372
      7.15000000	     -0.94171583	      5.18771879	     -1.58103774	      1.55705577	      0.87490068	     -0.22701195	     -2.16452074	     -4.60904707	     -6.60021526	    -44.42839685	     -3.04534368	     19.31886841	      0.00000000	     17.89639476	     13.10504197	      7.24481575	    -13.94931254	      1.45408007	    -14.00313566	      0.00000000	    -10.17056925	     -4.18150156	    178.33300645
      7.16000000	     -1.11824557	      5.71045851	     -1.66972386	      1.56730474	      0.87539726	     -0.22693324	     -0.00170924	     -5.57589522	     -6.44427205	    -47.90702067	     -5.10201848	     18.58896850	      0.00000000	     17.34427974	     13.65212472	      7.17098685	    -13.86311908	      2.31786859	    -13.76424674	      0.00000000	     -9.94458990	     -4.84522422	    178.45319581
      7.17000000	     -1.31402599	      6.25640593	     -1.74316344	      1.57756333	      0.87587502	     -0.22682024	      2.18616021	     -6.53561763	     -6.28224470	    -51.18645130	     -6.56915427	     17.62756547	      0.00000000	     16.70746119	     14.19255371	      7.00330639	    -13.57929886	      3.17037292	    -13.31512897	      0.00000000	     -9.64069178	     -5.53743545	    178.61092342
      7.18000000	     -1.40254309	      6.77518928	     -1.80810615	      1.58765933	      0.87652844	     -0.22667167	      4.23885575	     -7.42483408	     -6.11029038	    -54.20132364	     -7.32954905	     16.40649825	      0.00000000	     15.88912252	     14.69209775	      6.78782244	    -13.15750639	      3.92471017	    -12.83770687	      0.00000000	     -9.50120545	     -6.20135132	    178.68671199
      7.19000000	     -1.50541106	      7.23800849	     -1.80501001	      1.59781198	      0.87726289	     -0.22658605	      6.22797243	     -8.22939963	     -5.99516661	    -56.88160947	     -7.42197442	     15.08957549	      0.00000000	     15.01427325	     15.12822385	      6.55418528	    -12.63947789	      4.65233679	    -12.14356808	      0.00000000	     -9.29898009	     -6.78706448	    178.79041797
      7.20000000	     -1.54737658	      7.59477015	     -1.74105803	      1.60788822	      0.87817993	     -0.22653815	      8.05313485	     -8.88408646	     -5.93572276	    -59.18019935	     -6.85371278	     13.61494254	      0.00000000	     14.02986418	     15.46188462	      6.37008131	    -12.06866831	      5.30962723	    -11.43244193	      0.00000000	     -9.18796455	     -7.24044873	    178.79203913
